<svg width="28" height="32" viewBox="0 0 28 32" fill="none" xmlns="http://www.w3.org/2000/svg">
<path d="M13.761 3.47466V5.51743H15.8038L13.761 3.47466ZM5.12457 26.8492C4.99923 26.8506 4.88056 26.8012 4.79123 26.7132C4.70322 26.6252 4.65389 26.5065 4.65389 26.3812C4.65389 26.2572 4.70322 26.1372 4.79123 26.0492C4.88056 25.9612 4.99923 25.9118 5.12457 25.9132H24.2176C24.4763 25.9132 24.6843 26.1239 24.6843 26.3812C24.6843 26.6385 24.4763 26.8492 24.2176 26.8492H5.12457ZM5.12457 24.0104V24.0118C4.99923 24.0118 4.88056 23.9638 4.79123 23.8758C4.70322 23.7878 4.65389 23.6677 4.65389 23.5424C4.65389 23.4184 4.70322 23.2984 4.79123 23.2104C4.88056 23.1224 4.99923 23.0744 5.12457 23.0744H24.2176C24.4763 23.0757 24.6843 23.2851 24.6843 23.5424C24.6843 23.8011 24.4763 24.0104 24.2176 24.0118L5.12457 24.0104ZM19.7333 21.1703V21.1716C19.4759 21.1703 19.2679 20.961 19.2679 20.7036C19.2679 20.4449 19.4759 20.2356 19.7333 20.2343H24.2176C24.4763 20.2356 24.6843 20.4449 24.6843 20.7036C24.6843 20.961 24.4763 21.1703 24.2176 21.1716L19.7333 21.1703ZM19.7333 18.3315V18.3328C19.4746 18.3328 19.2653 18.1235 19.2653 17.8648C19.2653 17.6061 19.4746 17.3955 19.7333 17.3955H24.2176C24.4763 17.3955 24.6869 17.6061 24.6869 17.8648C24.6869 18.1235 24.4763 18.3328 24.2176 18.3328L19.7333 18.3315ZM19.7333 15.4914V15.4927C19.4759 15.4927 19.2679 15.282 19.2679 15.0247C19.2679 14.7673 19.4759 14.558 19.7333 14.5567H24.2176C24.4763 14.558 24.6843 14.7673 24.6843 15.0247C24.6843 15.282 24.4763 15.4927 24.2176 15.4927L19.7333 15.4914ZM19.7333 12.6526V12.6553C19.4759 12.6539 19.2666 12.4446 19.2666 12.1859C19.2666 11.9272 19.4759 11.7179 19.7333 11.7165H24.2176C24.4763 11.7179 24.6856 11.9272 24.6856 12.1859C24.6856 12.4446 24.4763 12.6539 24.2176 12.6553L19.7333 12.6526ZM19.7333 9.81246V9.81512C19.4746 9.81512 19.2653 9.60578 19.2653 9.3471C19.2653 9.08709 19.4746 8.87774 19.7333 8.87774H24.2176C24.4763 8.87774 24.6869 9.08709 24.6869 9.3471C24.6869 9.60578 24.4763 9.81512 24.2176 9.81512L19.7333 9.81246ZM19.7333 6.97366V6.97633C19.4759 6.97499 19.2666 6.76565 19.2666 6.50697C19.2666 6.24829 19.4759 6.03895 19.7333 6.03762H24.2176C24.4763 6.03895 24.6856 6.24829 24.6856 6.50697C24.6856 6.76565 24.4763 6.975 24.2176 6.97633L19.7333 6.97366ZM4.55008 18.4874C4.2914 18.4874 4.08073 18.2767 4.08073 18.018C4.08073 17.758 4.2914 17.5487 4.55008 17.5487H13.6999C13.9586 17.5487 14.1693 17.758 14.1693 18.018C14.1693 18.2767 13.9586 18.4874 13.6999 18.4874H4.55008ZM4.55008 15.3339C4.2914 15.3339 4.08073 15.1232 4.08073 14.8645C4.08073 14.6045 4.2914 14.3952 4.55008 14.3952H13.6999C13.9586 14.3952 14.1693 14.6045 14.1693 14.8645C14.1693 15.1232 13.9586 15.3339 13.6999 15.3339H4.55008ZM4.55008 12.1804C4.2914 12.1804 4.08206 11.9697 4.08206 11.711C4.08206 11.4524 4.2914 11.243 4.55008 11.243H13.6999C13.9586 11.243 14.168 11.4524 14.168 11.711C14.168 11.9697 13.9586 12.1804 13.6999 12.1804H4.55008ZM8.19842 9.02691C8.07442 9.02691 7.95441 8.97757 7.86641 8.88957C7.77707 8.80157 7.72773 8.68289 7.72773 8.55755C7.72773 8.43355 7.77707 8.31354 7.86641 8.22554C7.95441 8.13753 8.07442 8.0882 8.19842 8.08953H13.6999C13.824 8.0882 13.944 8.13753 14.032 8.22554C14.1213 8.31354 14.1706 8.43355 14.1706 8.55755C14.1706 8.68289 14.1213 8.80156 14.032 8.88957C13.944 8.97757 13.824 9.02691 13.6999 9.02691H8.19842ZM2.1248 28.8453V21.5664C1.36475 21.3277 0.847401 20.6237 0.846069 19.8263V3.69616C0.847403 2.69079 1.6621 1.87476 2.66747 1.87476H2.76881C2.99149 0.782714 3.95152 0 5.06493 0C6.17835 0 7.13836 0.782714 7.36105 1.87476H13.2947C13.4201 1.87342 13.5401 1.92409 13.6267 2.01477L14.4241 2.81212H26.6847C26.9434 2.81079 27.154 3.02013 27.154 3.27882V29.3145C27.154 30.7973 25.9513 32 24.4686 32H3.53021C2.81819 32 2.13549 31.7173 1.63146 31.2133C1.12875 30.7093 0.846083 30.0266 0.846083 29.3145C0.846083 29.0559 1.05543 28.8452 1.31411 28.8452L2.1248 28.8453ZM3.06218 21.649V28.8453H22.2511C22.5111 28.8453 22.7205 29.0546 22.7218 29.3147C22.7205 29.7787 22.9031 30.224 23.2312 30.552C23.5592 30.8814 24.0045 31.0654 24.4686 31.0654C24.9326 31.0654 25.3766 30.8814 25.7046 30.552C26.0326 30.224 26.2166 29.7787 26.2153 29.3147V3.74829H15.3628L17.2695 5.65503C17.3562 5.74303 17.4042 5.86171 17.4042 5.98438V19.8264C17.4029 20.8331 16.5882 21.6478 15.5828 21.6478L3.06218 21.649ZM21.8244 29.784H1.84766C2.05833 30.5387 2.74636 31.0614 3.5304 31.0614H22.4312C22.1179 30.6974 21.9084 30.256 21.8244 29.784ZM3.65817 6.72826C3.65684 6.91894 3.77151 7.08962 3.94618 7.16294C4.12219 7.23627 4.32355 7.19627 4.45821 7.0616C4.54621 6.9736 4.59555 6.85492 4.59555 6.73092V4.09079C4.59555 3.83077 4.80489 3.62143 5.0649 3.62143C5.32358 3.62143 5.53426 3.83077 5.53426 4.09079V6.73092C5.53426 7.50694 4.90355 8.13765 4.12752 8.13765C3.35017 8.13765 2.72079 7.50694 2.72079 6.73092V2.81223C2.47678 2.79889 2.23942 2.88556 2.06209 3.05224C1.88475 3.22025 1.78474 3.45227 1.78341 3.69626V19.8264C1.78474 20.3144 2.17944 20.7091 2.66743 20.7118H15.5827C16.0707 20.7104 16.4667 20.3144 16.4667 19.8264V6.45368H13.2946C13.0346 6.45368 12.8252 6.24434 12.8239 5.98432V2.81217H3.65799L3.65817 6.72826ZM17.4043 5.97224L17.4042 5.98438L17.4043 5.97224ZM6.3917 1.87474C6.19168 1.31339 5.661 0.937364 5.06497 0.937364C4.46894 0.937364 3.93692 1.31339 3.73692 1.87474H6.3917Z" fill="white"/>
</svg>
