<svg width="160" height="37" viewBox="0 0 160 37" fill="none" xmlns="http://www.w3.org/2000/svg">
<path d="M12.72 29.48C11.12 29.48 9.6 29.32 8.16 29C6.72 28.68 5.44 28.1733 4.32 27.48C3.22667 26.76 2.36 25.8667 1.72 24.8C1.10667 23.7067 0.8 22.3867 0.8 20.84C0.8 20.7067 0.8 20.5733 0.8 20.44C0.8 20.28 0.813333 20.16 0.84 20.08H6.76C6.73333 20.16 6.72 20.2667 6.72 20.4C6.72 20.5333 6.72 20.6533 6.72 20.76C6.72 21.6133 6.94667 22.3333 7.4 22.92C7.88 23.5067 8.57333 23.9467 9.48 24.24C10.3867 24.5333 11.44 24.68 12.64 24.68C13.4133 24.68 14.0933 24.64 14.68 24.56C15.2933 24.4533 15.8267 24.32 16.28 24.16C16.76 23.9733 17.1467 23.76 17.44 23.52C17.76 23.28 17.9867 23 18.12 22.68C18.28 22.36 18.36 22 18.36 21.6C18.36 20.88 18.12 20.2933 17.64 19.84C17.1867 19.3867 16.5467 19 15.72 18.68C14.92 18.36 14.0133 18.0667 13 17.8C11.9867 17.5333 10.9467 17.2667 9.88 17C8.81333 16.7067 7.77333 16.36 6.76 15.96C5.74667 15.5333 4.84 15.0267 4.04 14.44C3.24 13.8533 2.6 13.1067 2.12 12.2C1.64 11.2933 1.4 10.2 1.4 8.92C1.4 7.56 1.68 6.38667 2.24 5.4C2.82667 4.41333 3.64 3.6 4.68 2.96C5.72 2.32 6.92 1.85333 8.28 1.56C9.64 1.24 11.12 1.08 12.72 1.08C14.2133 1.08 15.6267 1.24 16.96 1.56C18.2933 1.85333 19.4667 2.33333 20.48 3C21.4933 3.66667 22.28 4.50667 22.84 5.52C23.4267 6.53333 23.72 7.73333 23.72 9.12V9.6H17.92V9.28C17.92 8.56 17.7067 7.94667 17.28 7.44C16.8533 6.93333 16.2533 6.53333 15.48 6.24C14.7067 5.94667 13.8 5.8 12.76 5.8C11.64 5.8 10.68 5.90667 9.88 6.12C9.10667 6.33333 8.50667 6.65333 8.08 7.08C7.68 7.48 7.48 7.96 7.48 8.52C7.48 9.16 7.70667 9.69333 8.16 10.12C8.64 10.52 9.28 10.88 10.08 11.2C10.9067 11.4933 11.8267 11.76 12.84 12C13.8533 12.24 14.8933 12.5067 15.96 12.8C17.0267 13.0933 18.0667 13.44 19.08 13.84C20.0933 14.24 21 14.7467 21.8 15.36C22.6 15.9467 23.24 16.68 23.72 17.56C24.2 18.44 24.44 19.4933 24.44 20.72C24.44 22.8267 23.9333 24.52 22.92 25.8C21.9067 27.08 20.52 28.0133 18.76 28.6C17 29.1867 14.9867 29.48 12.72 29.48ZM34.2684 29.48C33.5751 29.48 32.8284 29.4 32.0284 29.24C31.2551 29.08 30.5218 28.8 29.8284 28.4C29.1351 27.9733 28.5618 27.3733 28.1084 26.6C27.6818 25.8 27.4684 24.7867 27.4684 23.56C27.4684 22.0933 27.7884 20.88 28.4284 19.92C29.0684 18.96 29.9751 18.2133 31.1484 17.68C32.3484 17.12 33.7751 16.7333 35.4284 16.52C37.0818 16.3067 38.9084 16.2 40.9084 16.2V14.64C40.9084 14.0267 40.8018 13.4933 40.5884 13.04C40.4018 12.5867 40.0551 12.2267 39.5484 11.96C39.0684 11.6933 38.3884 11.56 37.5084 11.56C36.6284 11.56 35.9084 11.6667 35.3484 11.88C34.8151 12.0933 34.4284 12.3733 34.1884 12.72C33.9751 13.04 33.8684 13.4 33.8684 13.8V14.28H28.4684C28.4418 14.1467 28.4284 14.0267 28.4284 13.92C28.4284 13.7867 28.4284 13.6267 28.4284 13.44C28.4284 12.2133 28.8018 11.16 29.5484 10.28C30.2951 9.37333 31.3484 8.68 32.7084 8.2C34.0684 7.72 35.6551 7.48 37.4684 7.48C39.4151 7.48 41.0418 7.73333 42.3484 8.24C43.6818 8.74667 44.6951 9.49333 45.3884 10.48C46.1084 11.4667 46.4684 12.7067 46.4684 14.2V23.76C46.4684 24.24 46.6018 24.6 46.8684 24.84C47.1618 25.0533 47.4818 25.16 47.8284 25.16H49.1484V28.8C48.8818 28.9333 48.4684 29.0667 47.9084 29.2C47.3484 29.36 46.6684 29.44 45.8684 29.44C45.0951 29.44 44.4018 29.32 43.7884 29.08C43.2018 28.8667 42.7084 28.56 42.3084 28.16C41.9084 27.7333 41.6284 27.2267 41.4684 26.64H41.1884C40.7351 27.2 40.1751 27.6933 39.5084 28.12C38.8684 28.5467 38.1084 28.88 37.2284 29.12C36.3751 29.36 35.3884 29.48 34.2684 29.48ZM36.1484 25.28C36.8951 25.28 37.5618 25.1733 38.1484 24.96C38.7351 24.72 39.2284 24.4133 39.6284 24.04C40.0284 23.64 40.3351 23.16 40.5484 22.6C40.7884 22.04 40.9084 21.44 40.9084 20.8V19.64C39.4151 19.64 38.0818 19.7467 36.9084 19.96C35.7351 20.1467 34.8018 20.48 34.1084 20.96C33.4418 21.44 33.1084 22.1067 33.1084 22.96C33.1084 23.44 33.2284 23.8533 33.4684 24.2C33.7084 24.5467 34.0551 24.8133 34.5084 25C34.9618 25.1867 35.5084 25.28 36.1484 25.28ZM51.9116 29V0.079998H57.4716V29H51.9116ZM69.3756 29.48C67.2423 29.48 65.549 28.8933 64.2956 27.72C63.0423 26.5467 62.4156 24.6533 62.4156 22.04V7.96H67.9756V21.12C67.9756 21.8133 68.0556 22.4 68.2156 22.88C68.3756 23.3333 68.6023 23.7067 68.8956 24C69.2156 24.2933 69.6023 24.5067 70.0556 24.64C70.509 24.7733 71.0156 24.84 71.5756 24.84C72.4023 24.84 73.149 24.64 73.8156 24.24C74.4823 23.84 75.0023 23.2933 75.3756 22.6C75.749 21.88 75.9356 21.08 75.9356 20.2V7.96H81.4956V29H76.9356L76.5356 26.12H76.2556C75.749 26.7867 75.149 27.3733 74.4556 27.88C73.789 28.3867 73.029 28.7733 72.1756 29.04C71.3223 29.3333 70.389 29.48 69.3756 29.48ZM95.1191 29.48C93.6524 29.48 92.3324 29.32 91.1591 29C89.9857 28.68 88.9857 28.24 88.1591 27.68C87.3324 27.0933 86.6924 26.4 86.2391 25.6C85.8124 24.8 85.5991 23.8933 85.5991 22.88C85.5991 22.7733 85.5991 22.6667 85.5991 22.56C85.5991 22.4533 85.6124 22.3733 85.6391 22.32H90.9991C90.9991 22.3733 90.9991 22.4267 90.9991 22.48C90.9991 22.5333 90.9991 22.5867 90.9991 22.64C91.0257 23.3067 91.2391 23.8533 91.6391 24.28C92.0391 24.68 92.5591 24.9733 93.1991 25.16C93.8657 25.3467 94.5591 25.44 95.2791 25.44C95.9191 25.44 96.5324 25.3867 97.1191 25.28C97.7324 25.1467 98.2391 24.92 98.6391 24.6C99.0657 24.28 99.2791 23.8667 99.2791 23.36C99.2791 22.72 99.0124 22.2267 98.4791 21.88C97.9724 21.5333 97.2924 21.2533 96.4391 21.04C95.6124 20.8267 94.7057 20.5867 93.7191 20.32C92.8124 20.1067 91.9057 19.8667 90.9991 19.6C90.0924 19.3067 89.2657 18.9333 88.5191 18.48C87.7991 18.0267 87.2124 17.44 86.7591 16.72C86.3057 15.9733 86.0791 15.04 86.0791 13.92C86.0791 12.8267 86.3191 11.88 86.7991 11.08C87.2791 10.2533 87.9324 9.57333 88.7591 9.04C89.6124 8.50667 90.5991 8.12 91.7191 7.88C92.8657 7.61333 94.0924 7.48 95.3991 7.48C96.6257 7.48 97.7724 7.61333 98.8391 7.88C99.9057 8.12 100.839 8.49333 101.639 9C102.439 9.48 103.066 10.0933 103.519 10.84C103.972 11.56 104.199 12.3733 104.199 13.28C104.199 13.4667 104.199 13.64 104.199 13.8C104.199 13.96 104.186 14.0667 104.159 14.12H98.8391V13.8C98.8391 13.32 98.6924 12.92 98.3991 12.6C98.1057 12.2533 97.6791 11.9867 97.1191 11.8C96.5857 11.6133 95.9324 11.52 95.1591 11.52C94.6257 11.52 94.1324 11.56 93.6791 11.64C93.2524 11.72 92.8791 11.84 92.5591 12C92.2391 12.16 91.9857 12.36 91.7991 12.6C91.6391 12.8133 91.5591 13.08 91.5591 13.4C91.5591 13.8533 91.7457 14.2267 92.1191 14.52C92.5191 14.7867 93.0391 15.0133 93.6791 15.2C94.3191 15.3867 95.0257 15.5867 95.7991 15.8C96.7591 16.0667 97.7591 16.3333 98.7991 16.6C99.8657 16.84 100.852 17.1733 101.759 17.6C102.666 18.0267 103.399 18.64 103.959 19.44C104.519 20.2133 104.799 21.2667 104.799 22.6C104.799 23.88 104.546 24.96 104.039 25.84C103.559 26.72 102.879 27.4267 101.999 27.96C101.119 28.4933 100.092 28.88 98.9191 29.12C97.7457 29.36 96.4791 29.48 95.1191 29.48ZM109.506 29V23.28H115.306V29H109.506ZM121.331 29V0.079998H124.211V18.72L133.771 7.96H137.251L129.971 16.16L137.651 29H134.291L128.091 18.28L124.211 22.24V29H121.331ZM144.931 36.28C143.918 36.28 142.971 36.0533 142.091 35.6C141.238 35.1733 140.558 34.56 140.051 33.76C139.545 32.9867 139.291 32.08 139.291 31.04C139.291 29.8667 139.598 28.8667 140.211 28.04C140.851 27.2133 141.651 26.6 142.611 26.2C141.918 25.9067 141.385 25.4667 141.011 24.88C140.638 24.2933 140.451 23.6533 140.451 22.96C140.451 22.0533 140.785 21.28 141.451 20.64C142.118 19.9733 142.931 19.5333 143.891 19.32C143.011 18.7333 142.305 17.9867 141.771 17.08C141.265 16.1733 141.011 15.2 141.011 14.16C141.011 12.8533 141.318 11.7067 141.931 10.72C142.545 9.70667 143.465 8.92 144.691 8.36C145.945 7.77333 147.505 7.48 149.371 7.48C150.251 7.48 151.065 7.54666 151.811 7.68C152.585 7.81333 153.278 8.01333 153.891 8.28C154.825 7.93333 155.545 7.44 156.051 6.8C156.558 6.13333 156.891 5.4 157.051 4.6H159.931C159.905 5.34667 159.718 6.06667 159.371 6.76C159.025 7.45333 158.545 8.04 157.931 8.52C157.318 9 156.585 9.30667 155.731 9.44C156.425 10.08 156.931 10.8 157.251 11.6C157.571 12.4 157.731 13.2533 157.731 14.16C157.731 15.4133 157.425 16.5467 156.811 17.56C156.225 18.5467 155.318 19.3333 154.091 19.92C152.891 20.5067 151.345 20.8 149.451 20.8H146.131C145.331 20.8 144.678 20.96 144.171 21.28C143.665 21.5733 143.411 22.08 143.411 22.8C143.411 23.4133 143.678 23.8933 144.211 24.24C144.745 24.5867 145.411 24.76 146.211 24.76H154.451C155.998 24.76 157.251 25.28 158.211 26.32C159.198 27.36 159.691 28.6667 159.691 30.24C159.691 31.36 159.411 32.3733 158.851 33.28C158.291 34.2133 157.518 34.9467 156.531 35.48C155.571 36.0133 154.438 36.28 153.131 36.28H144.931ZM145.571 34H153.051C153.745 34 154.371 33.8533 154.931 33.56C155.491 33.2667 155.931 32.8533 156.251 32.32C156.598 31.8133 156.771 31.2667 156.771 30.68C156.771 29.6667 156.478 28.8533 155.891 28.24C155.305 27.6267 154.571 27.32 153.691 27.32H145.571C144.665 27.32 143.878 27.6533 143.211 28.32C142.545 28.96 142.211 29.7467 142.211 30.68C142.211 31.6933 142.531 32.4933 143.171 33.08C143.838 33.6933 144.638 34 145.571 34ZM149.371 18.52C151.238 18.52 152.611 18.1333 153.491 17.36C154.398 16.56 154.851 15.4933 154.851 14.16C154.851 12.8 154.398 11.7333 153.491 10.96C152.611 10.16 151.238 9.76 149.371 9.76C147.558 9.76 146.198 10.16 145.291 10.96C144.385 11.7333 143.931 12.8 143.931 14.16C143.931 14.9867 144.131 15.7333 144.531 16.4C144.931 17.0667 145.531 17.5867 146.331 17.96C147.158 18.3333 148.171 18.52 149.371 18.52Z" fill="#45651C"/>
</svg>
