<svg width="48" height="49" viewBox="0 0 48 49" fill="none" xmlns="http://www.w3.org/2000/svg">
<rect y="0.5" width="48" height="48" rx="24" fill="#34AADF"/>
<path d="M13.3538 23.6496C13.3538 23.6496 23.1193 19.5366 26.5061 18.0883C27.8044 17.509 32.2073 15.6551 32.2073 15.6551C32.2073 15.6551 34.2395 14.8442 34.0701 16.8138C34.0136 17.6248 33.5621 20.4634 33.1105 23.5337C32.4331 27.8786 31.6993 32.6289 31.6993 32.6289C31.6993 32.6289 31.5864 33.9613 30.6268 34.193C29.6672 34.4247 28.0866 33.382 27.8044 33.1502C27.5786 32.9765 23.5708 30.3696 22.1032 29.0951C21.708 28.7475 21.2565 28.0524 22.1596 27.2413C24.1917 25.3296 26.619 22.9545 28.0866 21.4483C28.764 20.7531 29.4413 19.131 26.619 21.1006C22.6112 23.9393 18.6599 26.6041 18.6599 26.6041C18.6599 26.6041 17.7567 27.1834 16.0633 26.662C14.3698 26.1407 12.3941 25.4455 12.3941 25.4455C12.3941 25.4455 11.0395 24.5765 13.3538 23.6496Z" fill="white"/>
</svg>
