<svg width="48" height="49" viewBox="0 0 48 49" fill="none" xmlns="http://www.w3.org/2000/svg">
<rect y="0.5" width="48" height="48" rx="24" fill="#00D95F"/>
<path d="M12.0001 35.6114L13.7221 29.2088C12.3334 26.7147 11.8922 23.8042 12.4794 21.0115C13.0667 18.2189 14.643 15.7312 16.9191 14.0052C19.1953 12.2792 22.0185 11.4305 24.8709 11.6149C27.7232 11.7993 30.4133 13.0044 32.4474 15.0091C34.4816 17.0137 35.7234 19.6835 35.945 22.5285C36.1666 25.3735 35.3531 28.2028 33.6538 30.4973C31.9545 32.7918 29.4834 34.3976 26.6939 35.02C23.9044 35.6424 20.9836 35.2396 18.4676 33.8856L12.0001 35.6114ZM18.7794 31.4897L19.1794 31.7265C21.0018 32.8049 23.1304 33.2512 25.2334 32.9958C27.3364 32.7404 29.2957 31.7976 30.8059 30.3144C32.3162 28.8312 33.2926 26.891 33.583 24.7959C33.8733 22.7009 33.4614 20.5688 32.4113 18.732C31.3612 16.8951 29.732 15.4566 27.7775 14.6406C25.823 13.8247 23.653 13.6771 21.6058 14.221C19.5585 14.7648 17.7489 15.9694 16.459 17.6472C15.1692 19.325 14.4714 21.3816 14.4746 23.4966C14.4729 25.2502 14.9587 26.97 15.8779 28.4643L16.1287 28.8772L15.1661 32.4507L18.7794 31.4897Z" fill="white"/>
<path fill-rule="evenodd" clip-rule="evenodd" d="M28.4872 25.1404C28.2527 24.9516 27.9782 24.8187 27.6845 24.7519C27.3908 24.685 27.0857 24.686 26.7924 24.7547C26.3517 24.9374 26.067 25.6277 25.7823 25.9729C25.7222 26.0557 25.634 26.1137 25.5342 26.1361C25.4343 26.1586 25.3297 26.1438 25.2399 26.0947C23.6267 25.4639 22.2744 24.3071 21.4028 22.8122C21.3285 22.7189 21.2933 22.6005 21.3047 22.4818C21.3161 22.3632 21.3731 22.2535 21.4639 22.176C21.7814 21.8622 22.0146 21.4734 22.1418 21.0458C22.17 20.574 22.0618 20.1041 21.8299 19.6921C21.6507 19.1145 21.3096 18.6002 20.8469 18.2099C20.6083 18.1028 20.3437 18.0669 20.0851 18.1065C19.8265 18.1461 19.5848 18.2596 19.3894 18.4333C19.0501 18.7256 18.7807 19.0901 18.6012 19.5001C18.4217 19.91 18.3366 20.355 18.3521 20.8021C18.3532 21.0532 18.3851 21.3032 18.4471 21.5466C18.6045 22.1313 18.8466 22.6899 19.1657 23.2048C19.3959 23.5992 19.6471 23.981 19.9182 24.3486C20.7992 25.556 21.9066 26.5811 23.179 27.3671C23.8175 27.7666 24.4999 28.0913 25.2128 28.335C25.9533 28.6701 26.7709 28.7987 27.5788 28.7072C28.0391 28.6377 28.4752 28.4562 28.8488 28.1789C29.2223 27.9015 29.5219 27.5368 29.7211 27.1167C29.8381 26.863 29.8736 26.5793 29.8227 26.3046C29.7007 25.7428 28.9482 25.4112 28.4872 25.1404Z" fill="white"/>
</svg>
