<svg width="26" height="32" viewBox="0 0 26 32" fill="none" xmlns="http://www.w3.org/2000/svg">
<path d="M14.3738 23.9805H11.1265C10.8506 23.9805 10.6269 23.7568 10.6269 23.4809V22.1163C9.37744 21.8532 8.17542 21.3563 7.1086 20.6618L6.13171 21.6289C5.93624 21.8224 5.62118 21.8215 5.42678 21.627L3.10529 19.3032C2.91058 19.1083 2.91039 18.7926 3.10486 18.5975L4.07113 17.6279C3.3777 16.5622 2.88147 15.3614 2.61856 14.1135H1.25948C0.983581 14.1135 0.759888 13.8898 0.759888 13.6139V10.3666C0.759888 10.0907 0.983581 9.86698 1.25948 9.86698H2.61856C2.88147 8.6198 3.37838 7.41878 4.07313 6.35177L3.10698 5.37763C2.91314 5.18222 2.91389 4.86685 3.10866 4.67233L5.43302 2.3509C5.62787 2.15625 5.94336 2.156 6.13851 2.35028L7.1096 3.31686C8.17529 2.62362 9.37688 2.12727 10.6269 1.86417V0.499594C10.6269 0.223693 10.8506 0 11.1265 0H14.3738C14.6497 0 14.8734 0.223693 14.8734 0.499594V1.86423C16.1187 2.1269 17.3187 2.62362 18.3854 3.31811L19.3568 2.35234C19.5521 2.15818 19.8678 2.15868 20.0624 2.35352L22.3839 4.6772C22.5786 4.8721 22.5788 5.18778 22.3844 5.38293L21.4181 6.35258C22.1116 7.41822 22.6078 8.61893 22.8707 9.86691H24.2408C24.5167 9.86691 24.7404 10.0906 24.7404 10.3665V13.6139C24.7404 13.8898 24.5167 14.1135 24.2408 14.1135H22.8707C22.6077 15.3611 22.1111 16.562 21.4169 17.6285L22.3836 18.6027C22.5774 18.798 22.5768 19.1134 22.3821 19.308L20.0591 21.6295C19.8642 21.8243 19.5482 21.8244 19.3531 21.6298L18.3849 20.6638C17.319 21.3574 16.1195 21.8536 14.8734 22.1163V23.4809C14.8734 23.7568 14.6497 23.9805 14.3738 23.9805ZM11.6261 22.9813H13.8742V21.7024C13.8742 21.4584 14.0506 21.25 14.2913 21.2097C15.6769 20.9775 17.0131 20.4249 18.1554 19.6114C18.3541 19.4701 18.6255 19.4926 18.7981 19.6647L19.7056 20.5701L21.3236 18.9531L20.4174 18.0399C20.2461 17.8672 20.224 17.5963 20.3651 17.3982C21.1787 16.2556 21.7316 14.9184 21.964 13.5314C22.0044 13.2907 22.2126 13.1143 22.4567 13.1143H23.7412V10.8662H22.4568C22.2128 10.8662 22.0044 10.6898 21.9641 10.4491C21.7315 9.06101 21.1789 7.72391 20.3659 6.58227C20.2246 6.38381 20.247 6.1124 20.419 5.93979L21.3248 5.03078L19.7078 3.41229L18.7975 4.31743C18.6248 4.4891 18.3537 4.51127 18.1554 4.37007C17.0118 3.55573 15.6756 3.00268 14.2913 2.77075C14.0506 2.7304 13.8742 2.52207 13.8742 2.27802V0.999187H11.6261V2.27808C11.6261 2.52214 11.4497 2.73047 11.209 2.77081C9.81858 3.00374 8.48048 3.55642 7.33935 4.36901C7.14095 4.51021 6.86961 4.48791 6.69712 4.31611L5.78667 3.40991L4.16699 5.02754L5.07257 5.94067C5.2438 6.11334 5.26585 6.38418 5.12478 6.58227C4.3105 7.72565 3.75739 9.06282 3.52508 10.4491C3.48473 10.6898 3.2764 10.8662 3.03235 10.8662H1.75908V13.1143H3.03241C3.27647 13.1143 3.4848 13.2907 3.52514 13.5314C3.7577 14.9194 4.31037 16.2566 5.12334 17.3982C5.26466 17.5967 5.24224 17.8681 5.07026 18.0406L4.16443 18.9497L5.78212 20.569L6.698 19.6623C6.87073 19.4913 7.14139 19.4695 7.33929 19.6104C8.4818 20.424 9.81989 20.977 11.209 21.2097C11.4496 21.25 11.626 21.4583 11.626 21.7024V22.9813H11.6261Z" fill="white"/>
<path d="M12.7447 19.9837C8.33699 19.9837 4.75116 16.3979 4.75116 11.9902C4.75116 7.58258 8.33699 3.99675 12.7447 3.99675C17.1523 3.99675 20.7382 7.58258 20.7382 11.9902C20.7382 16.3979 17.1523 19.9837 12.7447 19.9837ZM12.7447 4.99594C8.88798 4.99594 5.75035 8.13357 5.75035 11.9902C5.75035 15.8469 8.88798 18.9846 12.7447 18.9846C16.6013 18.9846 19.739 15.8469 19.739 11.9902C19.739 8.13357 16.6013 4.99594 12.7447 4.99594Z" fill="white"/>
<path d="M16.2473 19.1095C15.9714 19.1095 15.7477 18.8858 15.7477 18.6099V16.4866C15.7477 15.6872 15.4354 14.9344 14.8683 14.3667C14.3019 13.8008 13.5485 13.489 12.7474 13.489C11.0961 13.489 9.75261 14.8338 9.75261 16.4866V18.6099C9.75261 18.8858 9.52891 19.1095 9.25301 19.1095C8.97711 19.1095 8.75342 18.8858 8.75342 18.6099V16.4866C8.75342 14.2828 10.5451 12.4898 12.7474 12.4898C13.8152 12.4898 14.8194 12.9054 15.5749 13.6601C16.3308 14.4168 16.7469 15.4205 16.7469 16.4866V18.6099C16.7469 18.8858 16.5232 19.1095 16.2473 19.1095Z" fill="white"/>
<path d="M12.7447 13.489C11.3673 13.489 10.2467 12.3684 10.2467 10.9911C10.2467 9.61368 11.3673 8.4931 12.7447 8.4931C14.1221 8.4931 15.2426 9.61368 15.2426 10.9911C15.2426 12.3684 14.1221 13.489 12.7447 13.489ZM12.7447 9.49228C11.9182 9.49228 11.2459 10.1647 11.2459 10.9911C11.2459 11.8175 11.9182 12.4898 12.7447 12.4898C13.5711 12.4898 14.2435 11.8175 14.2435 10.9911C14.2435 10.1647 13.5711 9.49228 12.7447 9.49228Z" fill="white"/>
<path d="M14.9642 32C14.8847 32 14.8049 31.981 14.7318 31.9426L12.9944 31.0292L11.257 31.9426C11.0887 32.0311 10.8846 32.0163 10.7308 31.9046C10.577 31.7928 10.5 31.6034 10.5321 31.416L10.8639 29.4813L9.45825 28.1112C9.32204 27.9785 9.27308 27.7799 9.33185 27.5991C9.39061 27.4182 9.54699 27.2864 9.73514 27.2591L11.6776 26.9768L12.5464 25.2166C12.6305 25.0461 12.8042 24.9381 12.9944 24.9381C13.1845 24.9381 13.3583 25.0461 13.4424 25.2166L14.311 26.9768L16.2535 27.2591C16.4418 27.2864 16.5981 27.4183 16.6568 27.5991C16.7156 27.7799 16.6666 27.9785 16.5304 28.1112L15.1248 29.4813L15.4566 31.416C15.4888 31.6034 15.4117 31.7928 15.2578 31.9046C15.1709 31.9678 15.0678 32 14.9642 32ZM12.9944 29.9652C13.0743 29.9652 13.1541 29.9844 13.2269 30.0226L14.3007 30.5871L14.0957 29.3914C14.0679 29.2293 14.1216 29.064 14.2394 28.9492L15.1082 28.1023L13.9075 27.9279C13.7448 27.9042 13.6041 27.802 13.5314 27.6545L12.9944 26.5665L12.4575 27.6545C12.3847 27.802 12.244 27.9042 12.0814 27.9279L10.8807 28.1023L11.7495 28.9492C11.8673 29.064 11.921 29.2293 11.8932 29.3914L11.6881 30.5871L12.762 30.0226C12.8347 29.9844 12.9146 29.9652 12.9944 29.9652Z" fill="white"/>
<path d="M5.05915 29.0024C4.97966 29.0024 4.89985 28.9834 4.82672 28.945L3.41399 28.2023L2.0012 28.945C1.8329 29.0336 1.62894 29.0188 1.47507 28.907C1.32126 28.7952 1.24419 28.6058 1.27636 28.4184L1.5462 26.8454L0.403253 25.7312C0.267051 25.5985 0.218091 25.3999 0.276855 25.2191C0.33562 25.0382 0.491993 24.9064 0.680153 24.8791L2.25968 24.6496L2.96604 23.2183C3.05023 23.0478 3.22383 22.9398 3.41405 22.9398C3.60427 22.9398 3.77788 23.0478 3.86207 23.2183L4.56843 24.6496L6.14796 24.8791C6.33612 24.9064 6.49249 25.0383 6.55125 25.2191C6.61002 25.3999 6.561 25.5985 6.42486 25.7312L5.28191 26.8454L5.55175 28.4184C5.58391 28.6058 5.50685 28.7952 5.35304 28.907C5.26586 28.9702 5.16276 29.0024 5.05915 29.0024ZM3.41399 27.1383C3.49386 27.1383 3.57367 27.1575 3.64649 27.1957L4.39576 27.5896L4.25262 26.7554C4.22483 26.5932 4.27854 26.4279 4.39632 26.3132L5.00245 25.7223L4.16476 25.6006C4.00208 25.5769 3.86138 25.4747 3.78862 25.3273L3.41399 24.5683L3.03936 25.3273C2.96661 25.4747 2.82591 25.5769 2.66323 25.6006L1.82553 25.7223L2.43167 26.3132C2.54944 26.4279 2.60315 26.5932 2.57536 26.7554L2.43223 27.5896L3.18149 27.1957C3.25431 27.1575 3.33412 27.1383 3.41399 27.1383Z" fill="white"/>
<path d="M24.2311 29.0024C24.1516 29.0024 24.0717 28.9834 23.9986 28.945L22.5859 28.2023L21.1732 28.945C21.0049 29.0336 20.8008 29.0187 20.647 28.907C20.4932 28.7953 20.4162 28.6059 20.4483 28.4184L20.718 26.8454L19.5751 25.7312C19.4389 25.5984 19.3899 25.3999 19.4487 25.2191C19.5075 25.0382 19.6638 24.9064 19.852 24.8791L21.4315 24.6496L22.1379 23.2183C22.2221 23.0478 22.3957 22.9398 22.5859 22.9398C22.7761 22.9398 22.9497 23.0478 23.0339 23.2183L23.7403 24.6496L25.3198 24.8791C25.508 24.9064 25.6643 25.0383 25.7231 25.2191C25.7819 25.3999 25.7328 25.5984 25.5967 25.7312L24.4538 26.8454L24.7235 28.4184C24.7557 28.6059 24.6786 28.7953 24.5248 28.907C24.4377 28.9702 24.3347 29.0024 24.2311 29.0024ZM22.5859 27.1383C22.6657 27.1383 22.7456 27.1575 22.8184 27.1957L23.5676 27.5896L23.4245 26.7554C23.3967 26.5932 23.4504 26.4279 23.5682 26.3132L24.1744 25.7223L23.3367 25.6006C23.174 25.5769 23.0333 25.4747 22.9606 25.3273L22.5859 24.5681L22.2113 25.3272C22.1385 25.4747 21.9978 25.5769 21.8351 25.6006L20.9975 25.7222L21.6036 26.3131C21.7214 26.4279 21.7751 26.5932 21.7473 26.7553L21.6043 27.5895L22.3535 27.1956C22.4262 27.1575 22.5061 27.1383 22.5859 27.1383Z" fill="white"/>
</svg>
