<svg width="32" height="32" viewBox="0 0 32 32" fill="none" xmlns="http://www.w3.org/2000/svg">
<path d="M28.2667 0C27.3697 0.00105126 26.5031 0.325017 25.8253 0.91263C25.1476 1.50024 24.7041 2.31221 24.576 3.2H19.7333C19.5919 3.2 19.4562 3.25619 19.3562 3.35621C19.2562 3.45623 19.2 3.59188 19.2 3.73333C19.2 3.87478 19.2562 4.01044 19.3562 4.11046C19.4562 4.21048 19.5919 4.26667 19.7333 4.26667H24.5333V25.0667C24.5333 25.2081 24.5895 25.3438 24.6895 25.4438C24.7896 25.5438 24.9252 25.6 25.0667 25.6C25.2081 25.6 25.3438 25.5438 25.4438 25.4438C25.5438 25.3438 25.6 25.2081 25.6 25.0667C25.6 24.3594 25.881 23.6811 26.3811 23.181C26.8811 22.681 27.5594 22.4 28.2667 22.4C28.9739 22.4 29.6522 22.681 30.1523 23.181C30.6524 23.6811 30.9333 24.3594 30.9333 25.0667V25.1787C30.9319 25.8558 30.6623 26.5047 30.1835 26.9835C29.7047 27.4623 29.0558 27.7319 28.3787 27.7333H7.46667V4.26667H12.2667C12.4081 4.26667 12.5438 4.21048 12.6438 4.11046C12.7438 4.01044 12.8 3.87478 12.8 3.73333C12.8 3.59188 12.7438 3.45623 12.6438 3.35621C12.5438 3.25619 12.4081 3.2 12.2667 3.2H7.46667V0.533333C7.46667 0.391885 7.41048 0.256229 7.31046 0.15621C7.21044 0.0561903 7.07478 0 6.93333 0H0.533333C0.391885 0 0.256229 0.0561903 0.15621 0.15621C0.0561903 0.256229 0 0.391885 0 0.533333V31.4667C0 31.6081 0.0561903 31.7438 0.15621 31.8438C0.256229 31.9438 0.391885 32 0.533333 32H6.93333C7.07478 32 7.21044 31.9438 7.31046 31.8438C7.41048 31.7438 7.46667 31.6081 7.46667 31.4667V28.8H28.3787C29.339 28.7986 30.2596 28.4163 30.9385 27.737C31.6174 27.0577 31.9992 26.1369 32 25.1765V3.73333C31.9989 2.74354 31.6052 1.79461 30.9053 1.09472C30.2054 0.394824 29.2565 0.00112926 28.2667 0ZM6.4 30.9333H1.06667V29.3333H3.2V28.2667H1.06667V27.2H2.13333V26.1333H1.06667V25.0667H3.2V24H1.06667V22.9333H2.13333V21.8667H1.06667V20.8H3.2V19.7333H1.06667V18.6667H2.13333V17.6H1.06667V16.5333H3.2V15.4667H1.06667V14.4H2.13333V13.3333H1.06667V12.2667H3.2V11.2H1.06667V10.1333H2.13333V9.06667H1.06667V8H3.2V6.93333H1.06667V5.86667H2.13333V4.8H1.06667V3.73333H3.2V2.66667H1.06667V1.06667H6.4V30.9333ZM30.9333 22.4533C30.5861 22.098 30.1713 21.8156 29.7133 21.6228C29.2554 21.43 28.7635 21.3307 28.2667 21.3307C27.7698 21.3307 27.2779 21.43 26.82 21.6228C26.3621 21.8156 25.9473 22.098 25.6 22.4533V3.73333C25.6 3.02609 25.881 2.34781 26.3811 1.84772C26.8811 1.34762 27.5594 1.06667 28.2667 1.06667C28.9739 1.06667 29.6522 1.34762 30.1523 1.84772C30.6524 2.34781 30.9333 3.02609 30.9333 3.73333V22.4533Z" fill="white"/>
<path d="M15.5227 23.1717C15.5669 23.2605 15.635 23.3351 15.7194 23.3873C15.8037 23.4395 15.9009 23.4672 16 23.4672C16.0992 23.4672 16.1964 23.4395 16.2807 23.3873C16.365 23.3351 16.4331 23.2605 16.4774 23.1717L18.0774 19.9717C18.1143 19.8977 18.1334 19.8161 18.1334 19.7333V2.13333C18.1334 1.56754 17.9086 1.02492 17.5085 0.624839C17.1084 0.224761 16.5658 0 16 0C15.4342 0 14.8916 0.224761 14.4915 0.624839C14.0915 1.02492 13.8667 1.56754 13.8667 2.13333V19.7333C13.8666 19.8161 13.8858 19.8977 13.9227 19.9717L15.5227 23.1717ZM16.5334 18.3813V6.4H17.0667V18.7371L16.5334 18.3813ZM15.4667 18.3813L14.9334 18.7371V6.4H15.4667V18.3813ZM17.0667 5.33333H14.9334V4.26667H17.0667V5.33333ZM16 21.7408L15.0875 19.9157L16 19.3067L16.9126 19.9147L16 21.7408ZM14.9334 2.13333C14.9334 1.85044 15.0457 1.57912 15.2458 1.37909C15.4458 1.17905 15.7171 1.06667 16 1.06667C16.2829 1.06667 16.5542 1.17905 16.7543 1.37909C16.9543 1.57912 17.0667 1.85044 17.0667 2.13333V3.2H14.9334V2.13333Z" fill="white"/>
<path d="M9.6001 25.0667C9.6001 25.2081 9.65629 25.3438 9.75631 25.4438C9.85633 25.5438 9.99198 25.6 10.1334 25.6H21.8668C22.0082 25.6 22.1439 25.5438 22.2439 25.4438C22.3439 25.3438 22.4001 25.2081 22.4001 25.0667C22.4001 24.9252 22.3439 24.7896 22.2439 24.6895C22.1439 24.5895 22.0082 24.5333 21.8668 24.5333H10.1334C9.99198 24.5333 9.85633 24.5895 9.75631 24.6895C9.65629 24.7896 9.6001 24.9252 9.6001 25.0667Z" fill="white"/>
</svg>
