<svg width="28" height="34" viewBox="0 0 28 34" fill="none" xmlns="http://www.w3.org/2000/svg">
<path d="M3.11169 14.2337H3.28554C3.38904 14.2337 3.4883 14.1926 3.56149 14.1194C3.63468 14.0462 3.67579 13.947 3.67579 13.8435C3.67579 13.74 3.63468 13.6407 3.56149 13.5675C3.4883 13.4943 3.38904 13.4532 3.28554 13.4532H3.11169C3.00818 13.4532 2.90892 13.4943 2.83574 13.5675C2.76255 13.6407 2.72144 13.74 2.72144 13.8435C2.72144 13.947 2.76255 14.0462 2.83574 14.1194C2.90892 14.1926 3.00818 14.2337 3.11169 14.2337Z" fill="white" stroke="white" stroke-width="0.3"/>
<path d="M6.33564 13.4532H5.02148C4.91797 13.4532 4.81871 13.4943 4.74553 13.5675C4.67234 13.6407 4.63123 13.74 4.63123 13.8435C4.63123 13.947 4.67234 14.0462 4.74553 14.1194C4.81871 14.1926 4.91797 14.2337 5.02148 14.2337H6.33564C6.43914 14.2337 6.53841 14.1926 6.61159 14.1194C6.68478 14.0462 6.72589 13.947 6.72589 13.8435C6.72589 13.74 6.68478 13.6407 6.61159 13.5675C6.53841 13.4943 6.43914 13.4532 6.33564 13.4532Z" fill="white" stroke="white" stroke-width="0.3"/>
<path d="M8.0996 14.2337H17.5199C17.6234 14.2337 17.7227 14.1926 17.7959 14.1194C17.869 14.0462 17.9102 13.947 17.9102 13.8435C17.9102 13.74 17.869 13.6407 17.7959 13.5675C17.7227 13.4943 17.6234 13.4532 17.5199 13.4532H8.0996C7.9961 13.4532 7.89684 13.4943 7.82365 13.5675C7.75047 13.6407 7.70935 13.74 7.70935 13.8435C7.70935 13.947 7.75047 14.0462 7.82365 14.1194C7.89684 14.1926 7.9961 14.2337 8.0996 14.2337Z" fill="white" stroke="white" stroke-width="0.3"/>
<path d="M3.11169 10.5274H3.28554C3.38904 10.5274 3.4883 10.4862 3.56149 10.4131C3.63468 10.3399 3.67579 10.2406 3.67579 10.1371C3.67579 10.0336 3.63468 9.93434 3.56149 9.86116C3.4883 9.78797 3.38904 9.74686 3.28554 9.74686H3.11169C3.00818 9.74686 2.90892 9.78797 2.83574 9.86116C2.76255 9.93434 2.72144 10.0336 2.72144 10.1371C2.72144 10.2406 2.76255 10.3399 2.83574 10.4131C2.90892 10.4862 3.00818 10.5274 3.11169 10.5274Z" fill="white" stroke="white" stroke-width="0.3"/>
<path d="M6.33564 9.74686H5.02148C4.91797 9.74686 4.81871 9.78797 4.74553 9.86116C4.67234 9.93434 4.63123 10.0336 4.63123 10.1371C4.63123 10.2406 4.67234 10.3399 4.74553 10.4131C4.81871 10.4862 4.91797 10.5274 5.02148 10.5274H6.33564C6.43914 10.5274 6.53841 10.4862 6.61159 10.4131C6.68478 10.3399 6.72589 10.2406 6.72589 10.1371C6.72589 10.0336 6.68478 9.93434 6.61159 9.86116C6.53841 9.78797 6.43914 9.74686 6.33564 9.74686Z" fill="white" stroke="white" stroke-width="0.3"/>
<path d="M8.0996 10.5274H17.5199C17.6234 10.5274 17.7227 10.4862 17.7959 10.4131C17.869 10.3399 17.9102 10.2406 17.9102 10.1371C17.9102 10.0336 17.869 9.93434 17.7959 9.86116C17.7227 9.78797 17.6234 9.74686 17.5199 9.74686H8.0996C7.9961 9.74686 7.89684 9.78797 7.82365 9.86116C7.75047 9.93434 7.70935 10.0336 7.70935 10.1371C7.70935 10.2406 7.75047 10.3399 7.82365 10.4131C7.89684 10.4862 7.9961 10.5274 8.0996 10.5274Z" fill="white" stroke="white" stroke-width="0.3"/>
<path d="M3.11169 6.82124H3.28554C3.38904 6.82124 3.4883 6.78013 3.56149 6.70694C3.63468 6.63375 3.67579 6.53449 3.67579 6.43099C3.67579 6.32749 3.63468 6.22823 3.56149 6.15504C3.4883 6.08186 3.38904 6.04074 3.28554 6.04074H3.11169C3.00818 6.04074 2.90892 6.08186 2.83574 6.15504C2.76255 6.22823 2.72144 6.32749 2.72144 6.43099C2.72144 6.53449 2.76255 6.63375 2.83574 6.70694C2.90892 6.78013 3.00818 6.82124 3.11169 6.82124Z" fill="white" stroke="white" stroke-width="0.3"/>
<path d="M6.33564 6.04074H5.02148C4.91797 6.04074 4.81871 6.08186 4.74553 6.15504C4.67234 6.22823 4.63123 6.32749 4.63123 6.43099C4.63123 6.53449 4.67234 6.63375 4.74553 6.70694C4.81871 6.78013 4.91797 6.82124 5.02148 6.82124H6.33564C6.43914 6.82124 6.53841 6.78013 6.61159 6.70694C6.68478 6.63375 6.72589 6.53449 6.72589 6.43099C6.72589 6.32749 6.68478 6.22823 6.61159 6.15504C6.53841 6.08186 6.43914 6.04074 6.33564 6.04074Z" fill="white" stroke="white" stroke-width="0.3"/>
<path d="M8.0996 6.82124H17.5199C17.6234 6.82124 17.7227 6.78013 17.7959 6.70694C17.869 6.63375 17.9102 6.53449 17.9102 6.43099C17.9102 6.32749 17.869 6.22823 17.7959 6.15504C17.7227 6.08186 17.6234 6.04074 17.5199 6.04074H8.0996C7.9961 6.04074 7.89684 6.08186 7.82365 6.15504C7.75047 6.22823 7.70935 6.32749 7.70935 6.43099C7.70935 6.53449 7.75047 6.63375 7.82365 6.70694C7.89684 6.78013 7.9961 6.82124 8.0996 6.82124Z" fill="white" stroke="white" stroke-width="0.3"/>
<path d="M3.11169 17.94H3.28554C3.38904 17.94 3.4883 17.8989 3.56149 17.8257C3.63468 17.7525 3.67579 17.6532 3.67579 17.5497C3.67579 17.4462 3.63468 17.347 3.56149 17.2738C3.4883 17.2006 3.38904 17.1595 3.28554 17.1595H3.11169C3.00818 17.1595 2.90892 17.2006 2.83574 17.2738C2.76255 17.347 2.72144 17.4462 2.72144 17.5497C2.72144 17.6532 2.76255 17.7525 2.83574 17.8257C2.90892 17.8989 3.00818 17.94 3.11169 17.94Z" fill="white" stroke="white" stroke-width="0.3"/>
<path d="M6.33564 17.1595H5.02148C4.91797 17.1595 4.81871 17.2006 4.74553 17.2738C4.67234 17.347 4.63123 17.4462 4.63123 17.5497C4.63123 17.6532 4.67234 17.7525 4.74553 17.8257C4.81871 17.8989 4.91797 17.94 5.02148 17.94H6.33564C6.43914 17.94 6.53841 17.8989 6.61159 17.8257C6.68478 17.7525 6.72589 17.6532 6.72589 17.5497C6.72589 17.4462 6.68478 17.347 6.61159 17.2738C6.53841 17.2006 6.43914 17.1595 6.33564 17.1595Z" fill="white" stroke="white" stroke-width="0.3"/>
<path d="M8.0996 17.94H13.8136C13.9171 17.94 14.0164 17.8989 14.0896 17.8257C14.1628 17.7525 14.2039 17.6532 14.2039 17.5497C14.2039 17.4462 14.1628 17.347 14.0896 17.2738C14.0164 17.2006 13.9171 17.1595 13.8136 17.1595H8.0996C7.9961 17.1595 7.89684 17.2006 7.82365 17.2738C7.75047 17.347 7.70935 17.4462 7.70935 17.5497C7.70935 17.6532 7.75047 17.7525 7.82365 17.8257C7.89684 17.8989 7.9961 17.94 8.0996 17.94Z" fill="white" stroke="white" stroke-width="0.3"/>
<path d="M4.217 21.9791C4.40655 21.9793 4.58829 22.0547 4.72231 22.1887C4.85632 22.3228 4.93167 22.5045 4.93181 22.6941C4.93181 22.7976 4.97293 22.8968 5.04611 22.97C5.1193 23.0432 5.21856 23.0843 5.32206 23.0843C5.42556 23.0843 5.52482 23.0432 5.59801 22.97C5.6712 22.8968 5.71231 22.7976 5.71231 22.6941C5.71187 22.3656 5.60346 22.0464 5.40379 21.7856C5.20411 21.5247 4.92423 21.3368 4.60725 21.2507V20.9817C4.60725 20.8782 4.56614 20.779 4.49295 20.7058C4.41977 20.6326 4.32051 20.5915 4.217 20.5915C4.1135 20.5915 4.01424 20.6326 3.94106 20.7058C3.86787 20.779 3.82675 20.8782 3.82675 20.9817V21.2507C3.4768 21.3452 3.17312 21.5637 2.97222 21.8654C2.77131 22.1672 2.68686 22.5316 2.73458 22.891C2.7823 23.2503 2.95894 23.5801 3.23164 23.8189C3.50433 24.0578 3.8545 24.1894 4.217 24.1894C4.40655 24.1883 4.58874 24.2626 4.72351 24.3959C4.85828 24.5292 4.93457 24.7106 4.93562 24.9001C4.93666 25.0897 4.86237 25.2719 4.72908 25.4066C4.59579 25.5414 4.41442 25.6177 4.22487 25.6187C4.22221 25.6187 4.21967 25.6183 4.217 25.6183C4.21434 25.6183 4.2118 25.6183 4.20913 25.6187C4.02099 25.6166 3.84127 25.5404 3.7089 25.4066C3.57654 25.2729 3.50218 25.0924 3.50194 24.9042C3.50194 24.8007 3.46082 24.7015 3.38763 24.6283C3.31445 24.5551 3.21519 24.514 3.11169 24.514C3.00818 24.514 2.90892 24.5551 2.83574 24.6283C2.76255 24.7015 2.72144 24.8007 2.72144 24.9042C2.72187 25.2327 2.83028 25.552 3.02998 25.8128C3.22967 26.0736 3.50956 26.2615 3.82656 26.3477V26.6669C3.82656 26.7704 3.86767 26.8696 3.94086 26.9428C4.01405 27.016 4.11331 27.0571 4.21681 27.0571C4.32031 27.0571 4.41957 27.016 4.49276 26.9428C4.56594 26.8696 4.60706 26.7704 4.60706 26.6669V26.3477C4.95697 26.253 5.2606 26.0345 5.46147 25.7328C5.66233 25.4311 5.74676 25.0667 5.69905 24.7073C5.65133 24.348 5.47472 24.0183 5.20207 23.7794C4.92941 23.5406 4.57928 23.4089 4.21681 23.4089C4.02721 23.4089 3.84538 23.3336 3.71132 23.1995C3.57725 23.0654 3.50194 22.8836 3.50194 22.694C3.50194 22.5044 3.57725 22.3226 3.71132 22.1885C3.84538 22.0544 4.02721 21.9791 4.21681 21.9791H4.217Z" fill="white" stroke="white" stroke-width="0.3"/>
<path d="M11.0709 24.6249H7.77209C7.66859 24.6249 7.56932 24.666 7.49614 24.7392C7.42295 24.8124 7.38184 24.9117 7.38184 25.0152C7.38184 25.1187 7.42295 25.2179 7.49614 25.2911C7.56932 25.3643 7.66859 25.4054 7.77209 25.4054H11.0709C11.1744 25.4054 11.2736 25.3643 11.3468 25.2911C11.42 25.2179 11.4611 25.1187 11.4611 25.0152C11.4611 24.9117 11.42 24.8124 11.3468 24.7392C11.2736 24.666 11.1744 24.6249 11.0709 24.6249Z" fill="white" stroke="white" stroke-width="0.3"/>
<path d="M20.4352 17.4072V11.7941H25.5548C25.6583 11.7941 25.7576 11.7529 25.8307 11.6798C25.9039 11.6066 25.945 11.5073 25.945 11.4038V4.14516C25.9441 3.3374 25.6328 2.56089 25.0755 1.97618C24.5182 1.39148 23.7575 1.0433 22.9507 1.00364V1H3.7495C2.80752 1.00107 1.90443 1.37574 1.23835 2.04182C0.572273 2.7079 0.197601 3.61099 0.196533 4.55297V30.1512C0.196525 30.2247 0.217281 30.2967 0.25641 30.3589C0.29554 30.4212 0.351451 30.4711 0.417706 30.5029C0.483961 30.5348 0.557864 30.5473 0.630905 30.539C0.703946 30.5306 0.773154 30.5019 0.83056 30.4559L3.01947 28.7051L5.20839 30.4559C5.2776 30.5114 5.36363 30.5416 5.45229 30.5416C5.54096 30.5416 5.62698 30.5114 5.6962 30.4559L7.88472 28.7052L10.0732 30.4559C10.1424 30.5114 10.2284 30.5416 10.3171 30.5416C10.4058 30.5416 10.4918 30.5114 10.561 30.4559L12.9521 28.5431C13.5429 29.7878 14.4528 30.8539 15.5892 31.633C16.7256 32.412 18.048 32.8763 19.422 32.9785C20.7961 33.0807 22.1726 32.8173 23.4118 32.215C24.651 31.6126 25.7086 30.6929 26.4771 29.5493C27.2455 28.4057 27.6975 27.079 27.7869 25.7041C27.8764 24.3292 27.6002 22.9551 26.9864 21.7216C26.3726 20.4881 25.4431 19.4391 24.2924 18.6812C23.1417 17.9234 21.8108 17.4838 20.4352 17.4072ZM25.1645 4.14516V11.0136H20.4352V4.14516C20.4384 3.52015 20.689 2.92186 21.1321 2.48107C21.5752 2.04028 22.1748 1.79284 22.7999 1.79284C23.4249 1.79284 24.0245 2.04028 24.4676 2.48107C24.9107 2.92186 25.1613 3.52015 25.1645 4.14516ZM12.4972 27.9069L10.3166 29.6515L8.12817 27.9007C8.05896 27.8452 7.97293 27.815 7.88427 27.815C7.7956 27.815 7.70958 27.8452 7.64036 27.9007L5.45184 29.6515L3.26325 27.9006C3.19403 27.8452 3.10801 27.815 3.01934 27.815C2.93068 27.815 2.84465 27.8452 2.77544 27.9006L0.977033 29.3393V4.55297C0.97786 3.81792 1.27022 3.11321 1.78998 2.59345C2.30974 2.07369 3.01445 1.78133 3.7495 1.7805H20.7295C20.392 2.07507 20.1214 2.43851 19.936 2.84639C19.7505 3.25427 19.6546 3.69712 19.6547 4.14516V17.4029C18.4382 17.4566 17.2512 17.7944 16.1886 18.3891C15.1261 18.9838 14.2175 19.819 13.5355 20.8277C12.8536 21.8365 12.4172 22.9909 12.2613 24.1985C12.1054 25.4062 12.2343 26.6335 12.6377 27.7824L12.4972 27.9069ZM20 32.22C18.6111 32.22 17.2534 31.8082 16.0986 31.0365C14.9437 30.2649 14.0437 29.1682 13.5122 27.885C12.9807 26.6018 12.8416 25.1899 13.1125 23.8277C13.3835 22.4655 14.0523 21.2142 15.0344 20.2321C16.0165 19.25 17.2678 18.5812 18.63 18.3102C19.9922 18.0393 21.4041 18.1783 22.6873 18.7098C23.9705 19.2413 25.0672 20.1414 25.8388 21.2962C26.6105 22.4511 27.0223 23.8088 27.0223 25.1977C27.0202 27.0595 26.2797 28.8444 24.9632 30.1609C23.6467 31.4774 21.8618 32.2179 20 32.22Z" fill="white" stroke="white" stroke-width="0.3"/>
<path d="M19.7928 19.4842L16.07 22.6752C16.0497 22.6895 16.0309 22.7057 16.0137 22.7235L14.8679 23.7057C14.8282 23.7388 14.7955 23.7795 14.7717 23.8253C14.7478 23.8712 14.7333 23.9213 14.729 23.9728C14.7247 24.0243 14.7307 24.0761 14.7466 24.1253C14.7625 24.1745 14.788 24.22 14.8216 24.2593C14.8552 24.2985 14.8963 24.3307 14.9425 24.3539C14.9886 24.3771 15.0389 24.391 15.0905 24.3946C15.1421 24.3982 15.1938 24.3916 15.2428 24.375C15.2917 24.3585 15.3369 24.3324 15.3757 24.2983L15.9041 23.8454V29.314C15.9041 29.4175 15.9452 29.5167 16.0184 29.5899C16.0916 29.6631 16.1909 29.7042 16.2944 29.7042H23.7054C23.8089 29.7042 23.9082 29.6631 23.9814 29.5899C24.0546 29.5167 24.0957 29.4175 24.0957 29.314V23.8365L24.6213 24.2958C24.6599 24.3295 24.7047 24.3553 24.7533 24.3718C24.8018 24.3882 24.8532 24.3948 24.9043 24.3914C24.9555 24.388 25.0054 24.3745 25.0514 24.3518C25.0973 24.329 25.1383 24.2974 25.172 24.2589C25.2058 24.2203 25.2316 24.1754 25.248 24.1268C25.2644 24.0783 25.2711 24.027 25.2676 23.9758C25.2642 23.9247 25.2507 23.8747 25.228 23.8288C25.2053 23.7828 25.1737 23.7418 25.1351 23.7081L20.3039 19.4869C20.2332 19.4251 20.1427 19.3908 20.0489 19.3903C19.955 19.3898 19.8641 19.4231 19.7928 19.4842ZM23.3152 28.9237H16.6846V23.1764L20.0444 20.2966L23.3152 23.1546V28.9237Z" fill="white" stroke="white" stroke-width="0.3"/>
</svg>
