<svg width="34" height="28" viewBox="0 0 34 28" fill="none" xmlns="http://www.w3.org/2000/svg">
<path fill-rule="evenodd" clip-rule="evenodd" d="M8.30347 16.4008C8.1109 16.4008 7.95374 16.245 7.95374 16.0511V11.3276C7.95374 11.1336 8.10949 10.9778 8.30347 10.9778C8.49604 10.9778 8.65321 11.1336 8.65321 11.3276V16.0511C8.65321 16.245 8.49604 16.4008 8.30347 16.4008ZM29.4774 27.6533H8.30347C8.1109 27.6533 7.95374 27.4961 7.95374 27.3035V20.245C7.95374 20.0524 8.10949 19.8952 8.30347 19.8952C8.49604 19.8952 8.65321 20.0524 8.65321 20.245V26.9538H29.129V11.3276C29.129 11.1336 29.2848 10.9778 29.4787 10.9778C29.6713 10.9778 29.8285 11.1336 29.8285 11.3276V27.3035C29.8285 27.4961 29.6713 27.6533 29.4787 27.6533H29.4774Z" fill="white" stroke="white" stroke-width="0.3"/>
<path fill-rule="evenodd" clip-rule="evenodd" d="M18.8919 3.27644C18.9641 3.27644 19.0363 3.2991 19.0972 3.34299L30.7944 11.8515C30.9997 12.0002 31.2518 12.0611 31.5024 12.02C31.753 11.9803 31.9739 11.8444 32.1226 11.6391C32.2712 11.4338 32.3321 11.1818 32.2911 10.9297C32.2514 10.6791 32.1155 10.4582 31.9102 10.3096L19.4796 1.26603C19.474 1.26178 19.4683 1.25753 19.464 1.25328C19.1214 0.972925 18.6626 0.972925 18.3214 1.25328C18.3157 1.25753 18.3101 1.26178 18.3058 1.26603L5.87528 10.3096C5.66996 10.4582 5.53262 10.6791 5.49297 10.9297C5.45332 11.1803 5.51279 11.4324 5.66288 11.6391C5.81156 11.8444 6.03243 11.9803 6.28305 12.02C6.53367 12.0596 6.7857 12.0002 6.99101 11.8515L18.6868 3.34299C18.7477 3.2991 18.8211 3.27644 18.8919 3.27644ZM31.3478 12.7321C31.0023 12.7321 30.6667 12.6245 30.3821 12.4178L18.8904 4.05824L7.40012 12.4178C7.04189 12.6769 6.60578 12.7802 6.16968 12.7123C5.73499 12.6429 5.35268 12.4079 5.09355 12.051C4.83443 11.6942 4.73107 11.2581 4.79903 10.822C4.86841 10.3873 5.10346 10.0036 5.46027 9.74589L17.8825 0.707799C18.4757 0.226388 19.3013 0.226388 19.8945 0.707799L32.3178 9.74589C32.6746 10.0036 32.9083 10.3859 32.9791 10.822C33.0484 11.2567 32.9437 11.6942 32.686 12.051C32.4269 12.4079 32.0446 12.6429 31.6098 12.7123C31.522 12.7264 31.4343 12.7335 31.3465 12.7335L31.3478 12.7321Z" fill="white" stroke="white" stroke-width="0.3"/>
<path fill-rule="evenodd" clip-rule="evenodd" d="M17.3441 27.6533C17.1515 27.6533 16.9943 27.4961 16.9943 27.3035V17.6057H12.0541V27.3035C12.0541 27.4961 11.8983 27.6533 11.7043 27.6533C11.5118 27.6533 11.3546 27.4961 11.3546 27.3035V17.2574C11.3546 17.0648 11.5104 16.9077 11.7043 16.9077H17.3442C17.5368 16.9077 17.6939 17.0648 17.6939 17.2574V27.3035C17.6939 27.4961 17.5366 27.6533 17.3441 27.6533Z" fill="white" stroke="white" stroke-width="0.3"/>
<path fill-rule="evenodd" clip-rule="evenodd" d="M20.3643 22.5474H26.4573V17.6057H20.3643V22.5474ZM26.8067 23.2454H20.0145C19.822 23.2454 19.6648 23.0883 19.6648 22.8957V17.2559C19.6648 17.0633 19.8205 16.9061 20.0145 16.9061H26.8067C26.9993 16.9061 27.1564 17.0633 27.1564 17.2559V22.8957C27.1564 23.0883 26.9993 23.2454 26.8067 23.2454Z" fill="white" stroke="white" stroke-width="0.3"/>
<path fill-rule="evenodd" clip-rule="evenodd" d="M23.4117 23.247C23.2192 23.247 23.062 23.0898 23.062 22.8972V17.2574C23.062 17.0648 23.2178 16.9077 23.4117 16.9077C23.6043 16.9077 23.7615 17.0634 23.7615 17.2574V22.8972C23.7615 23.0898 23.6043 23.247 23.4117 23.247Z" fill="white" stroke="white" stroke-width="0.3"/>
<path fill-rule="evenodd" clip-rule="evenodd" d="M26.8084 20.4262H20.0162C19.8237 20.4262 19.6665 20.269 19.6665 20.0764C19.6665 19.8839 19.8237 19.7267 20.0162 19.7267H26.8084C27.001 19.7267 27.1581 19.8824 27.1581 20.0764C27.1581 20.269 27.001 20.4262 26.8084 20.4262Z" fill="white" stroke="white" stroke-width="0.3"/>
<path fill-rule="evenodd" clip-rule="evenodd" d="M15.5049 23.1422C15.3123 23.1422 15.1552 22.9865 15.1552 22.7925V21.7659C15.1552 21.5734 15.3109 21.4176 15.5049 21.4176C15.6975 21.4176 15.8546 21.5734 15.8546 21.7659V22.7925C15.8546 22.985 15.6975 23.1422 15.5049 23.1422Z" fill="white" stroke="white" stroke-width="0.3"/>
<path fill-rule="evenodd" clip-rule="evenodd" d="M18.8919 8.65713C17.755 8.65713 16.8303 9.58175 16.8303 10.7187C16.8303 11.8557 17.755 12.7803 18.8919 12.7803C20.0275 12.7803 20.9536 11.8557 20.9536 10.7187C20.9536 9.58175 20.0289 8.65713 18.8919 8.65713ZM18.8919 13.4785C17.3698 13.4785 16.1309 12.2409 16.1309 10.7188C16.1309 9.19668 17.3698 7.95914 18.8919 7.95914C20.4141 7.95914 21.6516 9.19668 21.6516 10.7188C21.6516 12.2409 20.4141 13.4785 18.8919 13.4785Z" fill="white" stroke="white" stroke-width="0.3"/>
<path fill-rule="evenodd" clip-rule="evenodd" d="M5.73495 16.3482C5.54096 16.3482 5.38521 16.1911 5.38521 15.9985V14.4778H4.18874V15.9985C4.18874 16.1911 4.03157 16.3482 3.839 16.3482C3.64643 16.3482 3.48927 16.1911 3.48927 15.9985V14.1295C3.48927 13.9369 3.64502 13.7797 3.839 13.7797H5.73496C5.92752 13.7797 6.08469 13.9355 6.08469 14.1295V15.9985C6.08469 16.1911 5.92752 16.3482 5.73495 16.3482ZM5.73495 27.6533H3.83899C3.74554 27.6533 3.65634 27.6164 3.59121 27.5513C3.52607 27.4862 3.48926 27.397 3.48926 27.3035L3.50059 20.299C3.50059 20.1064 3.65634 19.9506 3.85032 19.9506H3.85174C4.0443 19.9506 4.20006 20.1078 4.20006 20.3004L4.19015 26.9551H5.38662L5.39795 20.2989C5.39795 20.1063 5.5537 19.9506 5.74769 19.9506C5.94025 19.9506 6.09742 20.1078 6.09742 20.3003L6.08609 27.3035C6.08468 27.496 5.92893 27.6532 5.73636 27.6532L5.73495 27.6533Z" fill="white" stroke="white" stroke-width="0.3"/>
<path fill-rule="evenodd" clip-rule="evenodd" d="M1.69953 19.9491H8.09949L9.71934 18.148L8.09949 16.3469H1.69953V19.9491ZM8.25535 20.6472H1.34974C1.15717 20.6472 1 20.49 1 20.2975V15.9973C1 15.8048 1.15575 15.6476 1.34974 15.6476H8.25535C8.35447 15.6476 8.44934 15.6901 8.51447 15.7637L10.4486 17.9145C10.5676 18.0476 10.5676 18.2487 10.4486 18.3804L8.51447 20.5312C8.44792 20.6048 8.35305 20.6473 8.25394 20.6473L8.25535 20.6472Z" fill="white" stroke="white" stroke-width="0.3"/>
<path fill-rule="evenodd" clip-rule="evenodd" d="M6.5875 17.7133H3.64942C3.45685 17.7133 3.29968 17.5562 3.29968 17.3636C3.29968 17.171 3.45544 17.0139 3.64942 17.0139H6.5875C6.78007 17.0139 6.93724 17.171 6.93724 17.3636C6.93724 17.5562 6.78007 17.7133 6.5875 17.7133Z" fill="white" stroke="white" stroke-width="0.3"/>
<path fill-rule="evenodd" clip-rule="evenodd" d="M6.5875 19.2821H3.64942C3.45685 19.2821 3.29968 19.1264 3.29968 18.9324C3.29968 18.7398 3.45544 18.5827 3.64942 18.5827H6.5875C6.78007 18.5827 6.93724 18.7384 6.93724 18.9324C6.93724 19.125 6.78007 19.2821 6.5875 19.2821Z" fill="white" stroke="white" stroke-width="0.3"/>
</svg>
