<svg width="48" height="49" viewBox="0 0 48 49" fill="none" xmlns="http://www.w3.org/2000/svg">
<rect x="0.26087" y="0.76087" width="47.1234" height="47.4783" rx="23.5617" fill="white"/>
<rect x="0.26087" y="0.76087" width="47.1234" height="47.4783" rx="23.5617" stroke="#C4CFE3" stroke-width="0.521739"/>
<path d="M11.8098 34.9348H16.2356V24.1865L9.91309 19.4446V33.038C9.91309 34.0875 10.7635 34.9348 11.8098 34.9348Z" fill="#4285F4"/>
<path d="M31.4097 34.9348H35.8354C36.885 34.9348 37.7322 34.0844 37.7322 33.038V19.4446L31.4097 24.1865" fill="#34A853"/>
<path d="M31.4097 15.9673V24.1866L37.7322 19.4447V16.9157C37.7322 14.57 35.0546 13.2328 33.18 14.6396" fill="#FBBC04"/>
<path d="M16.2356 24.1866V15.9673L23.8226 21.6576L31.4096 15.9673V24.1866L23.8226 29.8768" fill="#EA4335"/>
<path d="M9.91309 16.9157V19.4447L16.2356 24.1866V15.9673L14.4653 14.6396C12.5875 13.2328 9.91309 14.57 9.91309 16.9157Z" fill="#C5221F"/>
</svg>
