<svg width="48" height="49" viewBox="0 0 48 49" fill="none" xmlns="http://www.w3.org/2000/svg">
<rect y="0.5" width="48" height="48" rx="24" fill="url(#paint0_linear_74_1617)"/>
<path d="M20.0055 24.5614C20.0055 22.3504 21.7969 20.5576 24.0073 20.5576C26.2176 20.5576 28.01 22.3504 28.01 24.5614C28.01 26.7725 26.2176 28.5653 24.0073 28.5653C21.7969 28.5653 20.0055 26.7725 20.0055 24.5614ZM17.8417 24.5614C17.8417 27.9677 20.602 30.7288 24.0073 30.7288C27.4125 30.7288 30.1728 27.9677 30.1728 24.5614C30.1728 21.1552 27.4125 18.3941 24.0073 18.3941C20.602 18.3941 17.8417 21.1552 17.8417 24.5614ZM28.976 18.1496C28.9759 18.4346 29.0603 18.7133 29.2185 18.9504C29.3768 19.1875 29.6017 19.3723 29.865 19.4815C30.1282 19.5907 30.4179 19.6194 30.6974 19.5639C30.977 19.5084 31.2337 19.3712 31.4353 19.1697C31.6369 18.9682 31.7743 18.7115 31.83 18.4319C31.8857 18.1523 31.8573 17.8625 31.7483 17.5991C31.6394 17.3357 31.4548 17.1106 31.2179 16.9521C30.981 16.7936 30.7024 16.709 30.4175 16.7089H30.4169C30.0349 16.7091 29.6686 16.8609 29.3985 17.131C29.1283 17.4011 28.9764 17.7675 28.976 18.1496ZM19.1564 34.3378C17.9857 34.2845 17.3494 34.0895 16.9266 33.9247C16.366 33.7064 15.966 33.4464 15.5455 33.0263C15.1249 32.6062 14.8646 32.2065 14.6473 31.6457C14.4825 31.2229 14.2875 30.5863 14.2343 29.4153C14.1761 28.1493 14.1644 27.769 14.1644 24.5615C14.1644 21.3541 14.177 20.9749 14.2343 19.7078C14.2876 18.5368 14.484 17.9014 14.6473 17.4774C14.8656 16.9166 15.1255 16.5165 15.5455 16.0958C15.9654 15.6752 16.365 15.4148 16.9266 15.1975C17.3492 15.0326 17.9857 14.8375 19.1564 14.7843C20.422 14.7261 20.8022 14.7144 24.0073 14.7144C27.2123 14.7144 27.5929 14.727 28.8596 14.7843C30.0303 14.8376 30.6655 15.0341 31.0894 15.1975C31.65 15.4148 32.05 15.6758 32.4705 16.0958C32.8911 16.5159 33.1504 16.9166 33.3687 17.4774C33.5335 17.9001 33.7285 18.5368 33.7817 19.7078C33.8399 20.9749 33.8515 21.3541 33.8515 24.5615C33.8515 27.769 33.8399 28.1482 33.7817 29.4153C33.7284 30.5863 33.5324 31.2228 33.3687 31.6457C33.1504 32.2065 32.8905 32.6066 32.4705 33.0263C32.0506 33.446 31.65 33.7064 31.0894 33.9247C30.6667 34.0896 30.0303 34.2846 28.8596 34.3378C27.594 34.3961 27.2138 34.4077 24.0073 34.4077C20.8008 34.4077 20.4216 34.3961 19.1564 34.3378ZM19.0569 12.6235C17.7787 12.6817 16.9052 12.8845 16.1424 13.1814C15.3525 13.488 14.6837 13.8993 14.0154 14.5667C13.3472 15.2342 12.937 15.9042 12.6305 16.6944C12.3337 17.4579 12.131 18.3311 12.0728 19.6097C12.0136 20.8903 12.0001 21.2997 12.0001 24.5614C12.0001 27.8232 12.0136 28.2326 12.0728 29.5132C12.131 30.7919 12.3337 31.665 12.6305 32.4285C12.937 33.2183 13.3473 33.889 14.0154 34.5561C14.6836 35.2233 15.3525 35.634 16.1424 35.9415C16.9067 36.2384 17.7787 36.4411 19.0569 36.4994C20.3379 36.5576 20.7465 36.5721 24.0073 36.5721C27.268 36.5721 27.6773 36.5586 28.9576 36.4994C30.2359 36.4411 31.1088 36.2384 31.8721 35.9415C32.6616 35.634 33.3308 35.2236 33.9991 34.5561C34.6674 33.8887 35.0767 33.2183 35.384 32.4285C35.6809 31.665 35.8845 30.7918 35.9417 29.5132C36 28.2316 36.0135 27.8232 36.0135 24.5614C36.0135 21.2997 36 20.8903 35.9417 19.6097C35.8835 18.331 35.6809 17.4574 35.384 16.6944C35.0767 15.9046 34.6663 15.2352 33.9991 14.5667C33.3319 13.8983 32.6616 13.488 31.873 13.1814C31.1088 12.8845 30.2358 12.6808 28.9586 12.6235C27.6783 12.5653 27.269 12.5508 24.0082 12.5508C20.7475 12.5508 20.3379 12.5643 19.0569 12.6235Z" fill="white"/>
<defs>
<linearGradient id="paint0_linear_74_1617" x1="47.0774" y1="48.5" x2="-0.922559" y2="0.499999" gradientUnits="userSpaceOnUse">
<stop stop-color="#FBE18A"/>
<stop offset="0.21" stop-color="#FCBB45"/>
<stop offset="0.38" stop-color="#F75274"/>
<stop offset="0.52" stop-color="#D53692"/>
<stop offset="0.74" stop-color="#8F39CE"/>
<stop offset="1" stop-color="#5B4FE9"/>
</linearGradient>
</defs>
</svg>
